<?xml version="1.0" standalone="no"?>
<!DOCTYPE svg PUBLIC "-//W3C//DTD SVG 20010904//EN"
 "http://www.w3.org/TR/2001/REC-SVG-20010904/DTD/svg10.dtd">
<svg version="1.0" xmlns="http://www.w3.org/2000/svg"
 width="147.000000pt" height="147.000000pt" viewBox="0 0 147.000000 147.000000"
 preserveAspectRatio="xMidYMid meet">
<metadata>
Created by potrace 1.11, written by Peter Selinger 2001-2013
</metadata>
<g transform="translate(0.000000,147.000000) scale(0.100000,-0.100000)"
fill="#000000" stroke="none">
<path d="M582 1335 c-268 -58 -472 -313 -472 -590 0 -329 276 -605 605 -605
279 0 533 205 590 476 44 206 -15 405 -165 554 -149 150 -352 209 -558 165z
m278 -16 c70 -15 187 -78 246 -131 106 -97 178 -228 189 -344 l6 -59 -23 30
c-13 16 -46 54 -74 85 -27 30 -58 68 -68 83 -12 20 -23 26 -36 22 -12 -4 -33
7 -65 35 -25 22 -52 40 -58 40 -7 0 -36 18 -66 40 -29 22 -57 40 -62 40 -10 0
-110 -134 -133 -177 -8 -17 -27 -45 -42 -62 l-26 -31 -31 26 c-75 61 -150 114
-161 114 -7 0 -28 -21 -46 -47 -18 -27 -54 -71 -79 -99 -25 -28 -68 -79 -95
-113 -27 -34 -61 -68 -77 -76 -26 -14 -28 -13 -34 5 -9 28 3 142 22 210 19 73
72 165 128 228 149 166 357 230 585 181z m-13 -205 c0 -16 -11 -44 -28 -67
-29 -40 -38 -43 -18 -5 6 11 8 22 6 25 -3 3 -13 -9 -22 -26 -10 -20 -11 -31
-4 -31 6 0 9 -6 6 -12 -2 -7 -11 -12 -20 -10 -18 3 -122 -131 -106 -136 6 -2
-2 -19 -16 -38 -36 -47 -23 -43 23 7 46 51 64 82 28 50 -39 -37 -32 -17 20 51
30 38 49 56 54 48 4 -7 20 8 41 41 18 29 35 46 37 40 5 -16 -106 -178 -170
-250 -27 -29 -46 -56 -44 -59 3 -3 16 8 28 24 13 16 41 50 63 76 22 26 60 76
85 112 25 36 48 66 53 66 14 0 7 -24 -19 -57 -24 -31 -21 -46 4 -21 25 25 11
-7 -15 -34 -14 -15 -24 -30 -21 -33 3 -3 20 12 38 35 17 22 37 40 43 40 6 0 1
-10 -10 -22 -32 -36 -145 -209 -140 -215 3 -2 33 38 66 90 34 52 71 103 83
113 24 22 24 21 -49 -91 -74 -113 -76 -116 -94 -118 -21 -4 -61 -36 -157 -129
-92 -90 -106 -117 -19 -38 l56 52 -12 -35 c-7 -22 -30 -49 -59 -72 -27 -20
-48 -38 -48 -41 0 -8 36 14 50 30 7 9 17 16 21 16 13 0 -19 -60 -49 -92 -14
-16 -21 -28 -16 -28 16 0 49 40 73 88 12 23 24 42 28 42 3 0 26 -11 50 -25 23
-14 43 -22 43 -17 0 5 -20 20 -45 33 -49 25 -50 29 -25 95 10 25 12 26 29 10
27 -25 37 -19 12 8 l-22 24 33 24 c71 53 129 80 156 74 23 -5 24 -5 9 5 -16
10 -13 13 27 35 36 19 51 22 65 14 30 -16 38 -11 15 8 -15 12 -23 33 -27 70
-5 47 -4 52 8 42 28 -23 15 5 -15 33 -16 16 -31 36 -32 45 -1 10 -2 24 -3 33
0 9 -6 23 -11 30 -6 8 -14 34 -18 58 l-7 44 33 -27 c18 -15 49 -34 68 -43 19
-8 52 -31 73 -49 20 -19 47 -35 60 -35 18 -1 16 -3 -8 -9 l-30 -8 30 -1 30 -2
-25 -11 c-22 -9 -23 -11 -7 -17 10 -4 18 -10 18 -14 -1 -4 -1 -24 0 -44 1 -34
2 -35 9 -13 4 14 8 45 9 69 l1 44 36 -46 c20 -26 41 -47 45 -47 5 0 25 -25 45
-56 19 -30 42 -58 50 -61 12 -5 14 -18 9 -72 -14 -147 -71 -268 -174 -372
-118 -118 -248 -172 -411 -172 -114 0 -172 13 -265 58 -156 75 -293 251 -320
411 -6 39 -5 42 25 54 17 7 57 46 91 88 55 68 110 134 169 202 l22 25 -17 -30
c-10 -16 -29 -45 -42 -63 -14 -18 -23 -36 -20 -38 3 -3 20 16 38 42 37 54 53
44 19 -11 -12 -19 -18 -35 -13 -35 6 0 16 11 23 25 8 15 17 22 23 16 5 -5 -10
-34 -38 -70 -26 -34 -45 -64 -42 -67 3 -3 19 14 35 38 38 56 62 77 62 56 0
-16 -54 -92 -98 -140 -14 -15 -23 -30 -20 -34 6 -5 75 75 109 126 9 14 20 22
25 17 4 -4 -7 -28 -24 -52 -40 -58 -41 -71 0 -25 l30 35 -6 -34 c-3 -18 -22
-56 -42 -85 l-36 -51 37 40 c34 36 37 37 32 15 -3 -14 -8 -41 -11 -60 l-6 -35
14 35 c8 19 15 54 15 78 1 43 8 51 29 30 9 -9 12 -9 12 0 0 7 -7 15 -15 18 -8
4 -15 13 -15 22 0 12 7 9 28 -11 37 -35 53 -35 20 1 -28 31 -62 94 -76 143 -5
19 -13 43 -18 53 -5 14 -4 17 4 12 15 -9 16 6 2 20 -6 6 -8 18 -4 27 5 14 11
12 43 -11 63 -46 131 -106 131 -115 0 -5 -16 5 -35 22 -48 42 -57 39 -15 -4
18 -19 31 -37 28 -40 -2 -3 -13 4 -23 15 -10 11 -23 20 -28 20 -6 0 2 -14 19
-31 23 -24 25 -29 9 -23 -18 7 -19 6 -6 -9 8 -10 15 -16 16 -15 1 2 28 34 60
72 32 37 67 85 79 105 17 30 105 151 110 151 0 0 2 -12 3 -26z m32 -150 c-15
-18 -22 -13 -13 10 3 9 10 13 16 10 5 -3 4 -12 -3 -20z m-1 -152 c-26 -26 -34
-40 -21 -33 12 6 28 19 35 29 21 29 38 36 38 15 0 -13 -20 -29 -61 -51 -33
-18 -62 -32 -65 -32 -5 0 64 108 90 141 l21 26 3 -25 c3 -18 -8 -37 -40 -70z"/>
<path d="M820 1095 c-7 -9 -11 -18 -8 -20 3 -3 11 1 18 10 7 9 11 18 8 20 -3
3 -11 -1 -18 -10z"/>
<path d="M737 925 c-10 -14 -14 -25 -9 -25 6 0 17 11 26 25 21 32 7 32 -17 0z"/>
<path d="M767 868 c-20 -29 -55 -74 -78 -101 -23 -26 -40 -49 -38 -51 5 -5
116 124 143 165 33 53 10 41 -27 -13z"/>
<path d="M777 831 c-9 -16 -37 -54 -62 -85 -43 -52 -55 -74 -36 -62 9 6 110
137 125 164 4 6 3 12 -1 12 -5 0 -16 -13 -26 -29z"/>
<path d="M310 814 c-17 -20 -29 -39 -26 -42 3 -3 7 -3 9 -1 1 2 18 21 36 42
19 20 30 37 24 37 -6 0 -25 -16 -43 -36z"/>
<path d="M364 817 c-32 -48 -46 -77 -36 -77 4 0 16 15 25 33 9 17 24 42 33 55
9 12 13 22 8 22 -5 0 -19 -15 -30 -33z"/>
<path d="M810 670 c14 -10 27 -17 29 -14 6 5 -31 33 -44 33 -5 1 1 -8 15 -19z"/>
<path d="M910 649 c0 -7 13 -10 34 -7 19 2 32 0 30 -4 -3 -4 -16 -8 -30 -8
-13 0 -24 -5 -24 -10 0 -6 12 -8 28 -5 25 6 25 5 10 -8 -19 -15 -25 -32 -8
-22 6 3 10 -1 10 -10 0 -9 5 -13 10 -10 6 3 10 17 10 31 0 36 17 29 31 -13 7
-21 14 -33 16 -26 3 7 -5 33 -16 58 -19 43 -22 45 -60 45 -23 0 -41 -5 -41
-11z"/>
<path d="M715 560 c3 -5 8 -10 11 -10 2 0 4 5 4 10 0 6 -5 10 -11 10 -5 0 -7
-4 -4 -10z"/>
</g>
</svg>
